{"title":"The Gunman 2015 CAMRip XviD MP3 Idiocracy","uid":11888110,"size":730761216,"categoryP":"video","categoryS":"movies","magnet":"?xt=urn:btih:0607afe309e3fb9124a5beb5e45fe3367f64f340&amp;dn=The+Gunman+2015+CAMRip+XviD+MP3+Idiocracy&amp;tr=udp%3A%2F%2Ftracker.openbittorrent.com%3A80&amp;tr=udp%3A%2F%2Fopen.demonii.com%3A1337&amp;tr=udp%3A%2F%2Ftracker.coppersurfer.tk%3A6969&amp;tr=udp%3A%2F%2Fexodus.desync.com%3A6969","seeders":6,"leechers":0,"uploader":"Satafakap","files":2,"time":1430896181,"description":"Synopsis / Plot\n\nA sniper on a mercenary assassination team, kills the minister of mines of the Congo. Terrier's successful kill shot forces him into hiding. Returning to the Congo years later, he becomes the target of a hit squad himself.\n\nDirector: Pierre Morel\nWriters: Jean-Patrick Manchette (novel), Don MacPherson (screenplay)\nStars: Sean Penn, Idris Elba, Jasmine Trinca  \n &lt;a href=&quot;\nhttp://www.imdb.com/title/tt2515034/&quot; rel=&quot;nofollow&quot; target=&quot;_NEW&quot;&gt;\nhttp://www.imdb.com/title/tt2515034/&lt;/a&gt;\n\nGeneral\n\nComplete name         : The.Gunman.2015.CAMRip.XviD.MP3-Idiocracy.avi\nFormat                : AVI\nFormat/Info           : Audio Video Interleave\nFile size             : 689 MiB\nDuration              : 1h 48mn\nOverall bit rate      : 885 Kbps\nWriting application   : VirtualDubMod 1.5.10.3 | www.virtualdub-fr.org\nWriting library       : VirtualDubMod build 2550/release\nSource                : The Gunman 2015 HDCAM x264 - CPG - Thanks!\nSample                : Yes\n\nVideo\n\nID                                       : 0\nFormat                                   : MPEG-4 Visual\nFormat profile                           : Advanced Simple@L5\nFormat settings, BVOP                    : 2\nFormat settings, QPel                    : No\nFormat settings, GMC                     : No warppoints\nFormat settings, Matrix                  : Default (H.263)\nMuxing mode                              : Packed bitstream\nCodec ID                                 : XVID\nCodec ID/Hint                            : XviD\nDuration                                 : 1h 48mn\nBit rate                                 : 747 Kbps\nWidth                                    : 640 pixels\nHeight                                   : 280 pixels\nDisplay aspect ratio                     : 2.25:1\nOriginal display aspect ratio            : 2.25:1\nFrame rate                               : 23.976 fps\nColor space                              : YUV\nChroma subsampling                       : 4:2:0\nBit depth                                : 8 bits\nScan type                                : Progressive\nCompression mode                         : Lossy\nBits/(Pixel*Frame)                       : 0.174\nStream size                              : 582 MiB (84%)\nWriting library                          : XviD 64\n\nAudio\n\nID                                       : 1\nFormat                                   : MPEG Audio\nFormat version                           : Version 1\nFormat profile                           : Layer 3\nMode                                     : Joint stereo\nMode extension                           : MS Stereo\nCodec ID                                 : 55\nCodec ID/Hint                            : MP3\nDuration                                 : 1h 48mn\nBit rate mode                            : Constant\nBit rate                                 : 128 Kbps\nChannel(s)                               : 2 channels\nSampling rate                            : 48.0 KHz\nCompression mode                         : Lossy\nStream size                              : 99.7 MiB (14%)\nAlignment                                : Split accross interleaves\nInterleave, duration                     : 42 ms (1.00 video frame)\nInterleave, preload duration             : 500 ms\n\nScreenshots:\n &lt;a href=&quot;\nhttp://i.imgur.com/DO17QYT.jpg&quot; rel=&quot;nofollow&quot; target=&quot;_NEW&quot;&gt;\nhttp://i.imgur.com/DO17QYT.jpg&lt;/a&gt;\n &lt;a href=&quot;\nhttp://i.imgur.com/MvLvULo.jpg&quot; rel=&quot;nofollow&quot; target=&quot;_NEW&quot;&gt;\nhttp://i.imgur.com/MvLvULo.jpg&lt;/a&gt;\n &lt;a href=&quot;\nhttp://i.imgur.com/NnMDufd.jpg&quot; rel=&quot;nofollow&quot; target=&quot;_NEW&quot;&gt;\nhttp://i.imgur.com/NnMDufd.jpg&lt;/a&gt;\n &lt;a href=&quot;\nhttp://i.imgur.com/rOM5M6P.jpg&quot; rel=&quot;nofollow&quot; target=&quot;_NEW&quot;&gt;\nhttp://i.imgur.com/rOM5M6P.jpg&lt;/a&gt;\n &lt;a href=&quot;\nhttp://i.imgur.com/LdlayrM.jpg&quot; rel=&quot;nofollow&quot; target=&quot;_NEW&quot;&gt;\nhttp://i.imgur.com/LdlayrM.jpg&lt;/a&gt;","torrent":{"xt":"urn:btih:0607afe309e3fb9124a5beb5e45fe3367f64f340","amp;dn":"The+Gunman+2015+CAMRip+XviD+MP3+Idiocracy","amp;tr":["udp%3A%2F%2Ftracker.openbittorrent.com%3A80","udp%3A%2F%2Fopen.demonii.com%3A1337","udp%3A%2F%2Ftracker.coppersurfer.tk%3A6969","udp%3A%2F%2Fexodus.desync.com%3A6969"],"infoHash":"0607afe309e3fb9124a5beb5e45fe3367f64f340","infoHashBuffer":{"type":"Buffer","data":[6,7,175,227,9,227,251,145,36,165,190,181,228,95,227,54,127,100,243,64]},"announce":[],"urlList":[]}}